# xmcd
#
# Track frame offsets: 
#        150
#        17622
#        35385
#        47007
#        77112
#        91520
#        111557
#        128287
#        148752
#        162210
#        184057
#        200612
#        216140
#        236582
#
# Disc length: 3326 seconds
#
# Revision: 0
# Processed by: cddbd v1.5.2PL0 Copyright (c) Steve Scherf et al.
# Submitted via: ExactAudioCopy v0.99pb3
#
DISCID=b40cfc0e
DTITLE=Northside Blues Band - Nothin' But Tone
DYEAR=1998
DGENRE=Blues
TTITLE0=Grandma Plays The Numbers
TTITLE1=Obliging Woman
TTITLE2=Five Months, Two Weeks, Two Days
TTITLE3=Slow Drive
TTITLE4=Got To Get My Baby Back
TTITLE5=I've Got This Thing
TTITLE6=She's Not There
TTITLE7=Lovin' Man
TTITLE8=Goin' Out Tonight
TTITLE9=Glamour Girl
TTITLE10=Without Me - Without Me
TTITLE11=Bad Luck Woman
TTITLE12=I Get A Bad Feeling
TTITLE13=Chromazone
EXTD=
EXTT0=
EXTT1=
EXTT2=
EXTT3=
EXTT4=
EXTT5=
EXTT6=
EXTT7=
EXTT8=
EXTT9=
EXTT10=
EXTT11=
EXTT12=
EXTT13=
PLAYORDER=
